<svg width="100" height="49" viewBox="0 0 100 49" fill="white" xmlns="http://www.w3.org/2000/svg">
<path d="M62.5571 10.5674L54.849 10.4142C51.7937 11.0096 51.7486 10.5742 54.087 9.25941C55.5362 8.44467 62.7922 8.98189 62.7922 8.98189C65.7862 9.0227 65.127 9.4339 64.7169 11.1921C64.617 11.6202 61.4248 13.7701 57.6781 14.5961C56.9491 13.6014 63.6072 10.9038 62.5571 10.5674Z"/>
<path d="M51.4366 10.3203C50.1408 7.56 46.4789 2.77557 44.5634 1.36478C42.7042 0.0153307 42.3098 -0.0459407 29.0704 0.0154004C21.5774 0.0767402 18.5075 0.1344 13.2394 0.506105C12.2469 0.576133 11.1266 1.54319 11.1266 1.54319C11.1266 1.54319 12.3062 1.57556 12.896 1.58843C14.051 1.61371 15.0853 1.63855 16.0846 1.66254C19.3111 1.74002 22.1723 1.80872 27.5493 1.85555C36.2817 1.85555 40.9014 2.10091 42.2535 2.65295C43.7183 3.205 44.9014 4.55446 46.8732 7.68274L49.5211 11.9151L36.4507 12.3445C29.2394 12.5285 19.9436 12.9578 15.7746 13.2032C8.9014 13.6325 6.52008 13.8295 11.5493 14.1234C13.4084 14.3687 23.3803 14.5527 33.6901 14.6141C51.3239 14.6754 52.5634 14.7367 54.6479 15.9022C61.5775 21.15 61.4704 30.3053 61.0704 36.8186C60.8323 40.6963 60.5168 48.4619 60.5168 48.4619L77.4084 48.4117C86.4225 48.4117 95.2112 48.2277 96.9014 47.9823L100 47.553L97.7465 47.1235C96.507 46.8168 88.2253 46.6328 79.3239 46.6328L62.7757 46.5488L63.2676 35.8985C63.2999 26.8847 63.1625 20.3247 54.8732 13.4485C53.3521 12.5898 51.831 11.179 51.4366 10.3203Z" />
<path d="M53.0704 26.5137C55.7183 25.2869 57.4648 23.5081 57.4648 22.0359C57.4648 20.9932 57.4608 20.8165 55.0422 20.8091C54.9852 20.809 54.9286 20.8087 54.8725 20.8085C53.5962 20.8038 52.5456 20.7999 52.2253 21.2385C52 21.4225 49.8591 21.9746 47.4366 22.4039C41.1831 23.5695 37.6338 24.3055 36.507 24.7962C34.1872 26.4927 35.3296 26.4024 37.5098 26.23C37.6055 26.2225 37.7033 26.2147 37.8028 26.207C39.7183 26.0843 40.338 26.391 41.7465 28.0471C42.7042 29.1512 43.581 30.2304 43.581 30.2304C45.1449 30.1636 47.7149 29.2713 53.0704 26.5137ZM44.3209 28.6816C44.3209 28.6816 39.8273 25.5175 42.6612 24.9181C44.1458 24.5208 45.6446 24.198 47.2885 23.844C49.0733 23.4596 51.0293 23.0384 53.3242 22.4449C57.3419 21.4609 55.1162 23.6506 55.1162 23.6506C54.3263 24.3211 48.7821 27.748 44.3209 28.6816Z"/>
<path d="M39.4366 35.1625C39.4366 33.813 35.831 29.2126 33.8028 28.1085C32.0563 27.0657 30.4788 26.943 20 27.0043C13.5211 27.0043 7.41005 27.2598 6.79033 27.5665C6.17061 27.8732 5.80188 28.4877 5.97089 28.549C6.02658 28.5692 6.72454 28.5683 7.88739 28.5666C10.2539 28.5633 14.5456 28.5573 19.2676 28.7218C29.1079 29.1186 31.8751 29.2302 33.6785 30.6055C34.384 31.1436 34.942 31.8751 35.7183 32.8929L37.2958 34.917L35.5493 38.168C33.0704 42.8911 30.9859 45.2833 28.7324 45.958C27.662 46.326 20.7324 46.5714 13.4084 46.5714C1.85915 46.5714 0 46.694 0 47.4914C0 48.841 28.5634 48.841 30.9296 47.5529C33.0704 46.3261 39.4366 37.0639 39.4366 35.1625Z"/>
<path d="M51.3239 34.1197C53.7465 32.8929 55.7746 31.5435 55.7746 31.2368C55.7746 30.8688 55.7183 30.6233 55.662 30.6848C55.5923 30.6848 55.1997 30.802 54.6572 30.9639C54.3221 31.064 53.9298 31.1811 53.5211 31.2982C51.662 31.9115 49.0141 33.0156 46.4225 34.4264C45.0141 35.1625 40 43.3205 40 44.7926C40 46.8167 41.4084 47.3076 46.0282 46.8781C51.831 46.3874 53.5774 45.958 53.1831 45.2833C53.0141 44.9766 50.6479 44.7313 47.831 44.7313C41.9718 44.7313 41.8591 44.6086 44.845 39.7629C46.5915 36.8799 47.4366 36.1439 51.3239 34.1197Z"/>
</svg>
